<svg xmlns="http://www.w3.org/2000/svg" viewBox="0 0 164 164"><defs><style>.cls-1{fill:#008c8c;}.cls-2{fill:#0ca861;}</style></defs><title>earth</title><g id="Layer_2" data-name="Layer 2"><g id="Layer_1-2" data-name="Layer 1"><path class="cls-1" d="M100.4,2.11a82,82,0,1,0,61.49,98.29A82,82,0,0,0,100.4,2.11Z"/><path class="cls-2" d="M101,132.71c-3-9-19.1-7.76-23.88-9.69s-6-18-15.58-21.91-25.64-2.63-32.89-6.68S24.22,67,25.8,57.65,30.27,44.38,37,41.55,44.1,58.39,53.12,55.38,60.78,31.8,67.31,26.67c5.21-4.1,25.9-14,36-23.82-1-.26-1.89-.52-2.86-.74A82,82,0,0,0,2.11,63.59C1.55,66,1.13,68.42.8,70.83,7.84,80.46,21,98,24.43,99.38c4.78,1.94,9.73,6.18,10.63,17.67s10.8,20,15.76,24.2c2.79,2.39,1.61,10.2,0,16.58a82.15,82.15,0,0,0,12.73,4.06c2.43.56,4.86,1,7.28,1.32,0-.14.09-.26.13-.41C76.46,143.88,104,141.73,101,132.71Z"/><path class="cls-2" d="M110.22,159A82,82,0,0,0,130.11,15.6c-14.05,24.06,3.61,35.38-.92,46.69-4.36,10.92-24.31,11.58-23,27.67S133.8,113,131.5,129.15C130.54,135.82,111.64,140.16,110.22,159Z"/></g></g></svg>