<svg xmlns="http://www.w3.org/2000/svg" width="187.428" height="187.429" viewBox="0 0 187.428 187.429"><defs><style>.a{fill:#008c8c;}.b{fill:#0ca861;}</style></defs><path class="a" d="M-1153.174,261.413a93.69,93.69,0,0,0-112.334,70.267,93.692,93.692,0,0,0,70.266,112.336A93.7,93.7,0,0,0-1082.9,373.747,93.693,93.693,0,0,0-1153.174,261.413Z" transform="translate(1267.92 -259)"/><g transform="translate(13.091 0)"><path class="b" d="M-1168.131,273.119c6.009-2.7,12.833-8.065,16.578-11.213-.633-.159-1.266-.317-1.905-.464a94.878,94.878,0,0,0-103.008,44.238c1.294,10.112,3.906,28.285,5.825,27.006,2.647-1.765,2.206-11.913,3.529-17.208s15-14.561,15.885-11.031,5.295,6.177,5.295,6.177,1.765,17.649,3.089,22.5,4.411,9.707,1.324,5.295-8.384-8.383-9.708-7.059,14.12,23.385,19.856,25.15,31.768-1.323,31.768-1.323h-15.442c-6.619,0-16.326-3.53-18.974-4.413s-2.206.882-1.323-4.854-1.765-6.618-5.295-15.883-.441-13.679,1.765-12.355,3.089,5.736,3.089,5.736,7.942-4.853,8.383-8.824-2.647-5.295-3.529-7.059-1.325-2.207.441-4.413c3.214-4.018,4.854,0,16.767-6.177s4.412-18.533,7.059-21.179S-1176.955,277.09-1168.131,273.119Z" transform="translate(1256.466 -259)"/><path class="b" d="M-1200.625,317.316c-4.511-1.289-13.238,6.618-13.679,11.031s6.177,10.149,8.825,9.265,6.618-4.411,7.059-8.383S-1197.536,318.2-1200.625,317.316Z" transform="translate(1262.486 -250.689)"/><path class="b" d="M-1157.525,337.89c4.854,1.765,11.473,13.238,14.12,14.561s0,2.647,0,2.647-6.177-7.059-9.266-6.177-4.411,2.648-9.265.882-9.266-4.411-8.384-9.706S-1157.525,337.89-1157.525,337.89Z" transform="translate(1268.756 -247.858)"/><path class="b" d="M-1194.328,299.152c-.441,2.206-3.529,2.648-1.765,5.736s3.971,3.089,5.295,4.854-.441,4.854,0,5.736,0,3.53,1.765,4.413,5.736-2.648,4.854-4.413-4.854-7.059-6.177-9.707.441-6.618-1.765-6.618Z" transform="translate(1265.014 -253.264)"/><path class="b" d="M-1168.563,266.049c.918,2.051,2.683,6.9,1.359,9.111s-9.265,3.529-11.031,4.854-1.765,3.529,0,3.529,11.914-.882,12.8-3.529,4.412-5.736,3.088-7.943-6.177-8.824-6.177-8.824Z" transform="translate(1267.453 -258.393)"/><path class="b" d="M-1176.033,359.067h-2.647a1.727,1.727,0,0,0-2.207-1.765c-2.206.441-5.736,2.206-7.059,4.854s-2.647,5.736-3.971,6.618-8.383.882-10.589,3.971-2.648,6.177-1.324,9.265,6.177,10.149,4.412,11.914,2.648,3.088,3.971,2.647,13.237-6.177,18.973-6.177,8.825,3.089,9.266,4.854,4.854,6.618,9.707,6.618,6.618.882,9.265-.882,2.207-4.413,4.854-7.5,6.177-6.619,6.177-10.59-6.177-12.355-7.942-14.561-2.648-9.266-3.089-9.266-1.765-6.618-3.088-6.618-1.325,11.031-3.53,11.913-9.266-3.529-9.707-4.854,2.207-4.411,1.766-4.853-6.62-2.207-9.266-.883S-1176.033,359.067-1176.033,359.067Z" transform="translate(1263.879 -245.65)"/><path class="b" d="M-1162.2,398.805c.394-.79,1.323.882,2.206.882s2.207-1.323,2.648-.882-3.089,4.854-3.53,4.411S-1163.079,400.57-1162.2,398.805Z" transform="translate(1269.898 -239.058)"/><path class="b" d="M-1130.913,387.3c-1.816.454-7.942,6.177-8.824,7.5s-4.854,2.206-5.295,3.53-1.765,2.206.882,1.765,12.8-9.266,14.12-10.149S-1129.147,386.863-1130.913,387.3Z" transform="translate(1272.282 -240.679)"/></g></svg>